<svg width="203" height="60" viewBox="0 0 203 60" fill="none" xmlns="http://www.w3.org/2000/svg">
<path d="M69.0617 19.7336C66.932 19.7 64.8577 20.4126 63.1987 21.748L60.1805 20.2988C60.0928 20.2551 59.9959 20.2332 59.8979 20.2349H59.2687C59.1019 20.2349 58.9418 20.3012 58.8238 20.4192C58.7058 20.5371 58.6396 20.6971 58.6396 20.8639V45.3734C58.6385 45.4815 58.6656 45.588 58.7184 45.6823C58.7712 45.7767 58.8478 45.8556 58.9405 45.9112C59.0386 45.973 59.1527 46.0047 59.2687 46.0024C59.3696 46.0041 59.4695 45.9823 59.5605 45.9386L64.4297 43.4138C64.5296 43.3563 64.6116 43.2722 64.6664 43.1707C64.7212 43.0693 64.7465 42.9546 64.7397 42.8395V39.0113C66.0827 39.697 67.572 40.0473 69.08 40.0322C70.4121 40.0646 71.7368 39.8242 72.9725 39.3258C74.2081 38.8273 75.3287 38.0813 76.2652 37.1337C77.2168 36.178 77.9638 35.0386 78.4607 33.785C78.9577 32.5314 79.1941 31.1898 79.1557 29.8419C79.192 28.5061 78.9559 27.1769 78.4617 25.9353C77.9675 24.6937 77.2256 23.5657 76.2813 22.62C75.3369 21.6742 74.2097 20.9306 72.9685 20.4344C71.7274 19.9382 70.3981 19.6997 69.0617 19.7336ZM64.9312 27.6361C65.2752 26.9943 65.7978 26.4656 66.4357 26.114C67.1144 25.7295 67.8804 25.5255 68.6605 25.5215C69.4321 25.5104 70.193 25.7021 70.8672 26.0775C71.5075 26.429 72.033 26.9575 72.3808 27.5997C72.7667 28.2929 72.9618 29.076 72.9461 29.8692C72.9656 30.4397 72.868 31.0082 72.6594 31.5396C72.4509 32.0709 72.1357 32.5541 71.7334 32.9591C71.3308 33.3624 70.8493 33.6782 70.319 33.8868C69.7886 34.0954 69.2209 34.1923 68.6514 34.1714C68.086 34.1918 67.5226 34.0946 66.9968 33.8859C66.4709 33.6772 65.9942 33.3616 65.5968 32.9591C65.1986 32.5519 64.8874 32.068 64.6821 31.5368C64.4768 31.0057 64.3816 30.4383 64.4023 29.8692C64.3852 29.092 64.5672 28.3232 64.9312 27.6361V27.6361Z" fill="#16B5C3"/>
<path d="M89.8787 19.7335C88.5133 19.6946 87.1539 19.9294 85.8807 20.4241C84.6075 20.9188 83.4463 21.6633 82.4656 22.6138C81.4941 23.5579 80.7297 24.6937 80.2211 25.949C79.7124 27.2044 79.4707 28.5518 79.5113 29.9056C79.4917 31.7126 79.951 33.4925 80.8425 35.0645C81.7203 36.6045 83.0123 37.8675 84.5719 38.7105C86.2013 39.5898 88.0272 40.0414 89.8787 40.023C91.2382 40.0565 92.5907 39.8172 93.8561 39.3194C95.1215 38.8215 96.2743 38.0752 97.2463 37.1245C98.2143 36.1883 98.978 35.0621 99.4896 33.8166C100.001 32.5711 100.249 31.2334 100.219 29.8874C100.26 28.5327 100.018 27.1844 99.5072 25.9287C98.9969 24.6731 98.23 23.5378 97.2554 22.5956C96.2799 21.6494 95.1244 20.9086 93.8573 20.417C92.5902 19.9254 91.2373 19.693 89.8787 19.7335ZM92.8604 32.9864C92.4748 33.3824 92.0099 33.6927 91.4961 33.8969C90.9823 34.1011 90.4312 34.1946 89.8787 34.1713C89.2945 34.1825 88.7142 34.074 88.1736 33.8523C87.6836 33.6562 87.2373 33.365 86.8606 32.9955C86.4875 32.6094 86.1987 32.1501 86.0126 31.6465C85.8089 31.0763 85.7071 30.4746 85.7117 29.8691C85.6876 29.2987 85.7777 28.7291 85.9765 28.1939C86.1754 27.6586 86.479 27.1684 86.8697 26.7519C87.6806 25.9859 88.754 25.5591 89.8696 25.5591C90.9853 25.5591 92.0587 25.9859 92.8695 26.7519C93.2619 27.1672 93.5667 27.6573 93.7657 28.1928C93.9646 28.7283 94.0537 29.2985 94.0276 29.8691C94.0525 30.4405 93.962 31.0109 93.7614 31.5465C93.5609 32.0821 93.2545 32.5718 92.8604 32.9864V32.9864Z" fill="#16B5C3"/>
<path d="M107.596 16.3247L102.726 13.7999C102.632 13.7464 102.525 13.7183 102.416 13.7183C102.308 13.7183 102.201 13.7464 102.106 13.7999C102.012 13.8541 101.935 13.9327 101.882 14.0274C101.829 14.122 101.802 14.2293 101.805 14.3377V38.8746C101.805 38.9825 101.833 39.0887 101.886 39.1829C101.938 39.277 102.014 39.3561 102.106 39.4124C102.206 39.47 102.319 39.5013 102.435 39.5035C102.536 39.5021 102.636 39.4772 102.726 39.4306L107.596 36.9149C107.698 36.8603 107.783 36.7788 107.843 36.6792C107.902 36.5797 107.933 36.4658 107.933 36.3498V16.8807C107.935 16.7657 107.904 16.6524 107.844 16.5541C107.785 16.4557 107.698 16.3762 107.596 16.3247V16.3247Z" fill="#16B5C3"/>
<path d="M115.875 13.3711L111.006 15.8868C110.904 15.9399 110.819 16.0198 110.76 16.1178C110.7 16.2158 110.669 16.3282 110.668 16.4428V18.4663C110.668 18.6331 110.735 18.793 110.853 18.911C110.971 19.0289 111.131 19.0952 111.298 19.0952H116.167C116.334 19.0952 116.494 19.0289 116.612 18.911C116.73 18.793 116.796 18.6331 116.796 18.4663V13.9089C116.796 13.801 116.769 13.6948 116.716 13.6006C116.663 13.5065 116.587 13.4274 116.495 13.3711C116.401 13.3149 116.294 13.2852 116.185 13.2852C116.076 13.2852 115.969 13.3149 115.875 13.3711V13.3711Z" fill="#16B5C3"/>
<path d="M116.167 20.2349H111.298C111.131 20.2349 110.971 20.3011 110.853 20.4191C110.735 20.537 110.668 20.697 110.668 20.8638V36.3589C110.668 36.4748 110.699 36.5887 110.759 36.6883C110.818 36.7878 110.903 36.8693 111.006 36.924L115.875 39.4397C115.965 39.4862 116.065 39.5112 116.167 39.5126C116.282 39.5104 116.395 39.479 116.495 39.4214C116.587 39.3651 116.663 39.2861 116.716 39.1919C116.769 39.0977 116.796 38.9916 116.796 38.8837V20.8638C116.796 20.697 116.73 20.537 116.612 20.4191C116.494 20.3011 116.334 20.2349 116.167 20.2349V20.2349Z" fill="#16B5C3"/>
<path d="M137.823 31.1362H132.917C132.793 31.1364 132.672 31.1728 132.568 31.2408C132.465 31.3087 132.383 31.4054 132.333 31.519C132.016 32.3127 131.482 33.0012 130.792 33.506C130.132 33.9552 129.348 34.1877 128.549 34.1714C128.02 34.1824 127.494 34.078 127.01 33.8655C126.525 33.653 126.092 33.3375 125.741 32.9409C124.956 32.0999 124.536 30.9823 124.574 29.8328C124.553 29.2702 124.643 28.7091 124.84 28.1819C125.038 27.6546 125.338 27.1717 125.723 26.7611C126.079 26.3614 126.518 26.0437 127.009 25.8297C127.5 25.6158 128.032 25.5106 128.568 25.5215C129.373 25.5079 130.164 25.7366 130.838 26.1777C131.514 26.6224 132.044 27.2565 132.361 28.0007C132.413 28.1088 132.495 28.2001 132.596 28.2645C132.698 28.3289 132.815 28.3638 132.935 28.3653H137.768C137.862 28.3676 137.956 28.3484 138.042 28.3091C138.127 28.2698 138.203 28.2114 138.263 28.1385C138.323 28.0655 138.365 27.9799 138.387 27.8881C138.408 27.7963 138.409 27.7007 138.388 27.6088C137.973 25.3453 136.751 23.3088 134.95 21.8756C132.954 20.3581 130.484 19.5977 127.98 19.7295C125.475 19.8614 123.099 20.877 121.273 22.5956C120.318 23.5295 119.565 24.6499 119.061 25.8871C118.558 27.1243 118.314 28.4519 118.346 29.7872C118.329 31.5996 118.788 33.3849 119.677 34.9644C120.544 36.4844 121.804 37.7437 123.325 38.6103C124.916 39.5358 126.727 40.0174 128.568 40.0048C130.919 40.0509 133.211 39.2593 135.032 37.7717C136.833 36.2843 138.043 34.2024 138.443 31.9018C138.46 31.809 138.456 31.7137 138.433 31.6223C138.409 31.531 138.366 31.446 138.306 31.3731C138.248 31.3004 138.174 31.2414 138.091 31.2004C138.007 31.1594 137.916 31.1375 137.823 31.1362V31.1362Z" fill="#16B5C3"/>
<path d="M150.661 19.7974C148.965 19.7733 147.302 20.2661 145.892 21.2102V14.365C145.895 14.2566 145.869 14.1494 145.816 14.0547C145.763 13.96 145.685 13.8815 145.591 13.8273C145.497 13.7737 145.39 13.7456 145.281 13.7456C145.173 13.7456 145.066 13.7737 144.971 13.8273L140.102 16.352C139.999 16.4035 139.913 16.4831 139.853 16.5814C139.794 16.6798 139.763 16.793 139.765 16.908V38.8746C139.765 38.9825 139.792 39.0887 139.845 39.1829C139.898 39.277 139.974 39.3561 140.066 39.4124C140.161 39.4642 140.267 39.4914 140.376 39.4914C140.484 39.4914 140.591 39.4642 140.686 39.4124L145.555 36.8967C145.657 36.842 145.743 36.7606 145.802 36.661C145.862 36.5614 145.893 36.4475 145.892 36.3316V29.4044C145.818 28.3184 146.142 27.2426 146.804 26.3783C147.109 26.0293 147.489 25.7537 147.915 25.5722C148.341 25.3907 148.803 25.3079 149.266 25.3301C149.616 25.2937 149.97 25.3427 150.297 25.4729C150.624 25.603 150.915 25.8105 151.144 26.0775C151.622 26.8794 151.841 27.8084 151.774 28.739V36.3498C151.773 36.4658 151.804 36.5796 151.864 36.6792C151.923 36.7788 152.009 36.8603 152.111 36.9149L156.98 39.4306C157.07 39.4772 157.17 39.5021 157.272 39.5035C157.387 39.5002 157.5 39.4689 157.6 39.4124C157.691 39.3548 157.766 39.2755 157.819 39.1816C157.871 39.0877 157.9 38.9822 157.901 38.8746V27.9369C158.004 25.8048 157.319 23.7093 155.977 22.0488C155.315 21.3007 154.494 20.7102 153.574 20.3207C152.655 19.9311 151.659 19.7523 150.661 19.7974Z" fill="#16B5C3"/>
<path d="M179.42 20.1984H178.308C178.199 20.1977 178.092 20.226 177.998 20.2805L175.326 21.8026C173.639 20.4282 171.52 19.6952 169.345 19.7336C168.014 19.7059 166.691 19.9488 165.457 20.4474C164.222 20.9461 163.102 21.6902 162.164 22.6345C161.227 23.5789 160.49 24.7039 160 25.9412C159.51 27.1786 159.277 28.5025 159.314 29.8327C159.275 31.1784 159.508 32.5182 160 33.7714C160.492 35.0246 161.233 36.1652 162.178 37.1245C163.116 38.0756 164.239 38.8243 165.478 39.3244C166.717 39.8245 168.045 40.0654 169.381 40.0321C171.336 40.0611 173.25 39.4743 174.852 38.355L175.016 39.0204C175.043 39.1165 175.091 39.2051 175.157 39.2794C175.224 39.3537 175.307 39.4117 175.399 39.4488C175.492 39.4877 175.593 39.5031 175.693 39.4935C175.793 39.484 175.89 39.4498 175.974 39.3941L179.812 36.8693C179.9 36.8144 179.972 36.7377 180.022 36.6467C180.071 36.5556 180.097 36.4534 180.095 36.3498V20.8547C180.099 20.7658 180.084 20.6771 180.052 20.5944C180.019 20.5117 179.969 20.4369 179.905 20.3749C179.841 20.3129 179.765 20.2651 179.682 20.2346C179.598 20.2042 179.509 20.1919 179.42 20.1984ZM169.727 34.144C169.161 34.1638 168.597 34.0654 168.071 33.8551C167.545 33.6448 167.069 33.3272 166.673 32.9226C166.272 32.5168 165.959 32.0333 165.752 31.502C165.545 30.9706 165.449 30.4026 165.469 29.8327C165.459 29.0616 165.651 28.3013 166.025 27.6269C166.382 26.9855 166.909 26.4555 167.548 26.0957C168.215 25.7091 168.975 25.5135 169.746 25.5306C170.314 25.5153 170.879 25.6164 171.407 25.8276C171.934 26.0387 172.413 26.3555 172.813 26.7585C173.214 27.1614 173.528 27.642 173.736 28.1707C173.944 28.6994 174.041 29.265 174.022 29.8327C174.041 30.4024 173.943 30.97 173.734 31.5004C173.525 32.0308 173.21 32.5129 172.808 32.9168C172.405 33.3207 171.924 33.638 171.395 33.8491C170.865 34.0601 170.298 34.1605 169.727 34.144Z" fill="#16B5C3"/>
<path d="M194.438 33.9072H192.231C191.942 33.9308 191.651 33.8962 191.375 33.8054C191.1 33.7146 190.845 33.5694 190.627 33.3785C190.438 33.1642 190.294 32.9143 190.203 32.6435C190.112 32.3727 190.076 32.0865 190.098 31.8016V25.1479L194.657 22.8054C194.759 22.7527 194.846 22.6731 194.907 22.5752C194.968 22.4773 195.001 22.3647 195.003 22.2494V20.8639C195.003 20.6971 194.937 20.5372 194.819 20.4192C194.701 20.3013 194.541 20.235 194.374 20.235H190.034V16.1607C190.034 16.0774 190.017 15.9948 189.985 15.9179C189.953 15.841 189.906 15.7713 189.846 15.7128C189.787 15.6542 189.717 15.6081 189.639 15.577C189.562 15.546 189.479 15.5306 189.396 15.5318H188.484C188.397 15.5317 188.31 15.5495 188.23 15.584C188.151 15.6185 188.078 15.669 188.019 15.7323L180.879 23.2976C180.771 23.4174 180.712 23.5738 180.715 23.7351V24.7651C180.715 24.8476 180.731 24.9294 180.763 25.0057C180.794 25.082 180.841 25.1514 180.899 25.2098C180.958 25.2682 181.027 25.3145 181.103 25.3461C181.18 25.3777 181.262 25.394 181.344 25.394H183.979V32.4397C183.949 33.7381 184.237 35.0242 184.818 36.1858C185.375 37.2438 186.24 38.1082 187.298 38.6651C188.452 39.2435 189.729 39.5314 191.019 39.5036C191.154 39.5017 191.284 39.457 191.392 39.376L194.821 36.8603C194.902 36.8019 194.968 36.7252 195.014 36.6366C195.06 36.5479 195.084 36.4497 195.085 36.3499V34.527C195.084 34.4436 195.066 34.3613 195.033 34.2848C195 34.2084 194.952 34.1393 194.891 34.0816C194.831 34.0239 194.76 33.9788 194.682 33.9489C194.604 33.9189 194.521 33.9047 194.438 33.9072V33.9072Z" fill="#16B5C3"/>
<path opacity="0.85" d="M7.99672 48.1075C8.35234 46.2845 8.61677 44.4616 8.90855 42.6386C9.40094 39.8131 9.9298 36.9875 10.4222 34.1619C10.9146 31.3363 11.334 28.766 11.7808 26.0498C12.0361 24.318 12.6926 22.9599 14.5163 22.4586C15.1956 22.2893 15.8958 22.2187 16.5953 22.2489C17.3703 22.2489 30.2726 22.1942 34.9047 22.2489C37.6402 22.2489 39.9107 24.1904 39.1903 27.3167C38.5885 29.9418 36.9746 39.7766 36.6554 41.1894C36.236 43.0123 35.0141 43.86 33.0993 43.86C29.1329 43.86 25.1664 43.86 21.2456 43.86C20.3195 43.8217 19.4155 44.1491 18.7289 44.7715C16.4311 46.7038 14.0421 48.5359 11.717 50.4317C11.3494 50.7644 10.8831 50.9676 10.3891 51.0104C9.89519 51.0532 9.4008 50.9332 8.9815 50.6687C8.55089 50.4169 8.21881 50.0262 8.03984 49.5607C7.86087 49.0952 7.84566 48.5827 7.99672 48.1075V48.1075Z" fill="#16B5C3"/>
<path opacity="0.85" d="M49.2387 11.1927C48.883 13.0156 48.6186 14.8386 48.3268 16.6615C47.8253 19.4871 47.3056 22.3127 46.8132 25.1382C46.3208 27.9638 45.9014 30.5342 45.4546 33.2504C45.1993 34.9822 44.5427 36.3403 42.7191 36.8416C42.0395 37.0097 41.3399 37.0833 40.6401 37.0603C39.8651 37.0603 26.9627 37.0603 22.3307 37.0603C19.5952 37.0603 17.3247 35.1189 18.0451 31.9925C18.6469 29.3675 20.2608 19.5327 20.5799 18.1199C20.9994 16.2969 22.2212 15.4584 24.1361 15.4493C28.1025 15.4493 32.069 15.4493 35.9898 15.4493C36.9153 15.4837 37.8178 15.1568 38.5065 14.5378C40.8043 12.5963 43.1932 10.7643 45.5184 8.8684C45.8859 8.53576 46.3523 8.33252 46.8462 8.28973C47.3402 8.24694 47.8346 8.36694 48.2539 8.63142C48.6845 8.88321 49.0166 9.27396 49.1955 9.73944C49.3745 10.2049 49.3897 10.7174 49.2387 11.1927V11.1927Z" fill="#16B5C3"/>
</svg>
